<?xml version="1.0" encoding="utf-8"?>
<!-- Generator: Adobe Illustrator 19.2.0, SVG Export Plug-In . SVG Version: 6.00 Build 0)  -->
<svg version="1.1" id="圖層_1" xmlns="http://www.w3.org/2000/svg" xmlns:xlink="http://www.w3.org/1999/xlink" x="0px" y="0px"
	 viewBox="0 0 566.9 566.9" style="enable-background:new 0 0 566.9 566.9;" xml:space="preserve">
<style type="text/css">
	.st0{clip-path:url(#SVGID_2_);}
	.st1{fill:#324C5A;}
	.st2{fill:#2D9DC4;}
	.st3{fill:#A8BB2F;}
	.st4{fill:#2A8EB1;}
	.st5{fill:#97A828;}
	.st6{clip-path:url(#SVGID_4_);}
	.st7{clip-path:url(#SVGID_6_);}
	.st8{clip-path:url(#SVGID_8_);}
	.st9{clip-path:url(#SVGID_10_);}
	.st10{clip-path:url(#SVGID_12_);}
	.st11{clip-path:url(#SVGID_14_);}
	.st12{clip-path:url(#SVGID_16_);}
	.st13{clip-path:url(#SVGID_18_);}
</style>
<g>
	<g>
		<defs>
			<rect id="SVGID_1_" x="128.4" y="145.6" width="455.4" height="374.2"/>
		</defs>
		<clipPath id="SVGID_2_">
			<use xlink:href="#SVGID_1_"  style="overflow:visible;"/>
		</clipPath>
		<g class="st0">
			<path class="st1" d="M484.1,413.7c-3.1-5.1-9.7-6.9-14.9-4c-93.6,53.9-213.5,22.2-267.4-70.3c-53.5-92.5-21.1-211.6,72.5-265.5
				c5.1-3.1,6.9-9.7,4-14.9c-3.1-5.1-9.7-6.9-14.9-4c-104.1,60.1-140.2,192.6-80.5,295.4c37.2,64.1,102.4,101.6,171.6,106.7
				l21.8,0.7c36.5-0.8,72.2-10.8,103.8-29.1C485.2,425.3,487,418.9,484.1,413.7z"/>
		</g>
	</g>
	<path class="st2" d="M372.6,68.1c96.6,0,174.8,78.3,174.8,174.8s-78.3,174.8-174.8,174.8s-174.8-78.3-174.8-174.8
		S276.1,68.1,372.6,68.1z"/>
	<path class="st3" d="M503,359.5c12-46.6,22.9-114-11.7-106.4c-33.1,7.3-74.3,15.3-94,18.2c-19.7,3-43.4-16.7-69.9-31
		c-3.6-14.9-4-22.9,16.7-38.3c21.1-15.6,31,14.9,39.3,5.8c13.9-16.7,4.3-32.5,22.2-68.8c17.8-35.7,19.7-30.2,32.5-58.3
		c-83.8-33.9-179.6,1.6-221.1,81.9c4.7,9.8,11.3,20.1,20.4,31.4c28,33.8,57.5,47.7,103.8,76.1c46.2,28,39.3,40.8,28,53.5
		c-11.3,12.8-28.8,67.4,4.3,84.5l14.9,9.1C432.6,413.1,473.5,392.4,503,359.5z"/>
	<path class="st4" d="M398.2,392.2c-96.6,0-174.8-78.3-174.8-174.8c-0.1-40.2,13.7-79.1,38.9-110.3c-39.4,32.4-64.5,81.2-64.5,135.8
		c0,96.6,78.3,174.8,174.8,174.8c52.7,0,102.6-23.6,135.9-64.5C477.3,378.5,438.3,392.3,398.2,392.2z"/>
	<path class="st5" d="M503.4,356.9c-41.7,31.7-95.5,42.9-146.4,30.2c2.5,8.9,8.6,16.4,16.7,20.7c5.8,3.6,10.5,6.6,14.9,9.1h1.1
		l6.2-0.7l2.6-0.4l6.2-1.1l2.2-0.4c6.9-1.4,13.7-3.2,20.4-5.5l2.2-0.7c1.8-0.7,3.6-1.1,5.1-1.8l3.2-1.1l4.7-2.2
		c1.1-0.4,2.2-1.1,3.6-1.5l4.3-2.2l3.6-1.8l4-2.2l4.3-2.6c1.4-0.7,2.8-1.6,4-2.6c2.2-1.5,4-3,6.2-4l3-2.2l4.3-3.2l3-2.2
		c1.4-1,2.7-2.1,4-3.2c1-0.8,1.8-1.6,2.6-2.6l4-3.6c0.8-0.8,1.7-1.6,2.6-2.2l4.3-4.3l1.8-1.8l0.4-0.4
		C503,359.1,503.3,358,503.4,356.9L503.4,356.9L503.4,356.9z M227.3,180.2c5.8-26.9,18.2-51.7,35-72.9l-0.4,0.4
		c-2.2,1.8-4,3.2-5.8,5.1l-1.8,1.8c-1.5,1.5-3.2,3-4.7,4.7l-2.2,2.2L243,126c-0.8,0.8-1.6,1.7-2.2,2.6l-4.3,5.5
		c-0.8,0.9-1.6,1.9-2.2,3l-3,3.6l-3,4l-3,4.3c-0.8,1.2-1.5,2.4-2.2,3.6l-2.2,3.2l-3.2,5.8l-1.1,1.8
		C220,168.6,223.3,174.1,227.3,180.2L227.3,180.2z"/>
	<path class="st1" d="M269.1,171.4H118.3c-6.1,0-11.1-5-11.1-11.1v-3.1c0-6.1,5-11.1,11.1-11.1h150.8c6.1,0,11.1,5,11.1,11.1v3.1
		C280.2,166.4,275.2,171.4,269.1,171.4z"/>
	<path class="st1" d="M172.1,105.1L83.5,227c-3.6,4.9-10.5,6-15.5,2.5l-2.5-1.8c-4.9-3.6-6-10.5-2.5-15.5l88.6-121.9
		c3.6-4.9,10.5-6,15.5-2.5l2.5,1.8C174.6,93.2,175.7,100.1,172.1,105.1C172.2,105.1,172.1,105.1,172.1,105.1z"/>
	<path class="st1" d="M309.7,299.1H37.3c-7,0-12.6-5.7-12.7-12.7l0,0c0-7,5.7-12.6,12.7-12.7h272.4c7,0,12.6,5.7,12.7,12.7l0,0
		C322.3,293.4,316.6,299.1,309.7,299.1z"/>
	<g>
		<defs>
			
				<ellipse id="SVGID_3_" transform="matrix(0.673 -0.7396 0.7396 0.673 -202.4715 72.5857)" cx="-19.1" cy="265.3" rx="259.6" ry="198.5"/>
		</defs>
		<clipPath id="SVGID_4_">
			<use xlink:href="#SVGID_3_"  style="overflow:visible;"/>
		</clipPath>
		<g class="st6">
			<g>
				<defs>
					<rect id="SVGID_5_" x="-16.2" y="278.2" width="243.9" height="196.6"/>
				</defs>
				<clipPath id="SVGID_6_">
					<use xlink:href="#SVGID_5_"  style="overflow:visible;"/>
				</clipPath>
				<g class="st7">
					<g>
						<defs>
							
								<rect id="SVGID_7_" x="-182.6" y="116.5" transform="matrix(0.673 -0.7396 0.7396 0.673 -209.8026 132.5908)" width="455.4" height="374.2"/>
						</defs>
						<clipPath id="SVGID_8_">
							<use xlink:href="#SVGID_7_"  style="overflow:visible;"/>
						</clipPath>
						<g class="st8">
							<path class="st1" d="M32.7,460c34.8-11,66.3-30.7,91.4-57.1l21.5,19.6l2-2.2l-30.1,33.2c-6,6.8-5.3,17.1,1.5,23.1
								c6.6,5.8,16.7,5.3,22.7-1.1l71.1-78.1c6-6.8,5.3-17.1-1.5-23.1c-6.6-5.8-16.7-5.3-22.7,1.1l-28.3,31.1l-22.1-20.1
								c42.8-54.6,58.9-128.1,36.5-198.7C138.9,74.1,16.6,11.6-97.9,48.2c-5.7,1.9-8.8,8-7.1,13.7c1.9,5.7,8,8.8,13.7,7.1
								C11.6,36,121.5,92.2,153.9,194c32.1,102.1-25.1,212.1-128,245.1c-5.7,1.9-8.8,8-7.1,13.7C20.7,458.4,26.7,461.4,32.7,460z"/>
						</g>
					</g>
				</g>
			</g>
			<g>
				<defs>
					<ellipse id="SVGID_9_" cx="1272.7" cy="297.5" rx="236.1" ry="180.5"/>
				</defs>
				<clipPath id="SVGID_10_">
					<use xlink:href="#SVGID_9_"  style="overflow:visible;"/>
				</clipPath>
				<g class="st9">
					<g>
						<defs>
							<rect id="SVGID_11_" x="1052.1" y="194" width="414.2" height="340.3"/>
						</defs>
						<clipPath id="SVGID_12_">
							<use xlink:href="#SVGID_11_"  style="overflow:visible;"/>
						</clipPath>
						<g class="st10">
							<path class="st1" d="M1375.6,437.8c-2.8-4.7-8.8-6.3-13.5-3.6c-85.1,49-194.1,20.2-243.2-63.9
								c-48.7-84.2-19.2-192.5,66-241.5c4.7-2.9,6.1-9,3.2-13.7c-2.8-4.5-8.5-6-13.1-3.5c-94.7,54.7-127.5,175.2-73.2,268.7
								c33.8,58.3,93.1,92.5,156,97.1v27.2h-38.2c-8.2,0-14.9,6.7-14.9,14.9c0,8.2,6.7,14.9,14.9,14.9h96.1
								c8.2,0,14.9-6.7,14.9-14.9c0-8.2-6.7-14.9-14.9-14.9h-38V478c33.2-0.7,65.6-9.8,94.3-26.5
								C1376.6,448.4,1378.3,442.5,1375.6,437.8z"/>
						</g>
					</g>
					<path class="st2" d="M1274.2,123.5c87.9,0,159,71.2,159,159s-71.2,159-159,159s-159-71.2-159-159S1186.4,123.5,1274.2,123.5z"
						/>
					<path class="st3" d="M1392.8,388.5c10.9-42.4,20.9-103.7-10.6-96.7c-30.1,6.6-67.5,13.9-85.5,16.6c-18,2.7-39.5-15.2-63.6-28.2
						c-3.3-13.5-3.6-20.9,15.2-34.8c19.2-14.2,28.2,13.5,35.7,5.3c12.6-15.2,3.9-29.5,20.2-62.6c16.2-32.5,17.9-27.5,29.5-53
						c-76.2-30.8-163.4,1.5-201.1,74.5c4.3,8.9,10.3,18.3,18.6,28.5c25.5,30.8,52.3,43.4,94.3,69.2c42.1,25.5,35.7,37.1,25.5,48.7
						c-10.3,11.6-26.2,61.3,3.9,76.9l13.5,8.2C1328.7,437.3,1365.9,418.5,1392.8,388.5z"/>
					<path class="st4" d="M1297.4,418.3c-87.9,0-159-71.2-159-159c0-36.5,12.5-71.9,35.4-100.3c-37.1,30.3-58.6,75.6-58.6,123.5
						c0,87.9,71.2,159,159,159c47.9,0,93.3-21.5,123.6-58.6C1369.4,405.9,1334,418.4,1297.4,418.3z"/>
					<path class="st5" d="M1393.2,386.2c-37.9,28.9-86.9,39-133.2,27.5c2.3,8.1,7.8,14.9,15.2,18.8c5.3,3.3,9.6,6,13.5,8.2h1
						l5.6-0.7l2.4-0.3l5.6-1l2-0.3c6.3-1.3,12.5-3,18.6-5l2-0.7c1.7-0.7,3.3-1,4.6-1.7l2.9-1l4.3-2c1-0.3,2-1,3.3-1.4l3.9-2l3.3-1.7
						l3.7-2l3.9-2.4c1.3-0.6,2.5-1.4,3.6-2.4c1.8-1.4,3.7-2.6,5.6-3.6l2.7-2l3.9-2.9l2.7-2c1.3-0.9,2.5-1.9,3.6-2.9
						c0.9-0.7,1.7-1.5,2.4-2.4l3.6-3.3c0.7-0.8,1.5-1.4,2.4-2l3.9-3.9l1.7-1.7l0.3-0.3C1392.8,388.2,1393.1,387.2,1393.2,386.2
						L1393.2,386.2L1393.2,386.2z M1142.1,225.5c5.3-24.5,16.6-47,31.8-66.3l-0.3,0.3c-2,1.7-3.6,2.9-5.3,4.6l-1.7,1.7
						c-1.4,1.4-2.9,2.7-4.3,4.3l-2,2l-3.9,3.9c-0.8,0.7-1.4,1.5-2,2.4l-3.9,5c-0.8,0.8-1.4,1.7-2,2.7l-2.7,3.3l-2.7,3.6l-2.7,3.9
						c-0.7,1.1-1.4,2.2-2,3.3l-2,2.9l-2.9,5.3l-1,1.7C1135.4,214.9,1138.4,219.9,1142.1,225.5z"/>
					<path class="st1" d="M1180,217.4h-137.1c-5.5,0-10-4.5-10.1-10.1v-2.9c0-5.6,4.5-10,10.1-10.1H1180c5.6,0,10,4.5,10.1,10.1v2.9
						C1190.1,212.9,1185.6,217.4,1180,217.4z"/>
					<path class="st1" d="M1091.9,157.2l-80.6,110.9c-3.3,4.5-9.6,5.5-14.1,2.3l-2.3-1.7c-4.5-3.3-5.5-9.6-2.3-14.1l80.6-110.9
						c3.3-4.5,9.6-5.5,14.1-2.3l2.3,1.7C1094.1,146.4,1095.1,152.7,1091.9,157.2z"/>
					<path class="st1" d="M1217,333.6H969.2c-6.4,0-11.5-5.2-11.5-11.5l0,0c0-6.3,5.2-11.5,11.5-11.5h247.7
						c6.4,0,11.5,5.2,11.5,11.5l0,0C1228.5,328.4,1223.3,333.6,1217,333.6z"/>
					<g>
						<defs>
							
								<ellipse id="SVGID_13_" transform="matrix(0.673 -0.7396 0.7396 0.673 76.1318 777.9498)" cx="917.9" cy="302.9" rx="236.1" ry="180.5"/>
						</defs>
						<clipPath id="SVGID_14_">
							<use xlink:href="#SVGID_13_"  style="overflow:visible;"/>
						</clipPath>
						<g class="st11">
							<g>
								<defs>
									<rect id="SVGID_15_" x="920.6" y="314.6" width="221.8" height="178.8"/>
								</defs>
								<clipPath id="SVGID_16_">
									<use xlink:href="#SVGID_15_"  style="overflow:visible;"/>
								</clipPath>
								<g class="st12">
									<g>
										<defs>
											
												<rect id="SVGID_17_" x="769.2" y="167.5" transform="matrix(0.673 -0.7396 0.7396 0.673 69.4716 832.5257)" width="414.2" height="340.3"/>
										</defs>
										<clipPath id="SVGID_18_">
											<use xlink:href="#SVGID_17_"  style="overflow:visible;"/>
										</clipPath>
										<g class="st13">
											<path class="st1" d="M965,479.9c31.7-10,60.3-27.9,83.1-52l19.6,17.8l1.8-2l-27.4,30.1c-5.4,6.2-4.8,15.6,1.4,21
												c6,5.3,15.2,4.9,20.7-1l64.6-71c5.4-6.2,4.8-15.6-1.4-21c-6-5.3-15.2-4.9-20.7,1l-25.7,28.2l-20.1-18.3
												c38.9-49.6,53.6-116.5,33.2-180.7c-32.6-103.1-143.8-159.9-248-126.7c-5.2,1.8-7.9,7.5-6,12.6c1.7,4.9,7,7.7,12.1,6.2
												c93.6-30,193.6,21.1,223,113.8c29.2,92.9-22.8,192.9-116.4,222.9c-5.2,1.7-8,7.2-6.5,12.4
												C954.1,478.5,959.6,481.3,965,479.9z"/>
										</g>
									</g>
								</g>
							</g>
						</g>
					</g>
				</g>
			</g>
		</g>
	</g>
</g>
</svg>
